<?xml version="1.0" encoding="UTF-8"?>
<svg xmlns="http://www.w3.org/2000/svg" style="display: none;">
    <!-- Add Card Icon -->
    <symbol id="icon-add-card" viewBox="0 0 492.022 492.022">
        <path d="M317.88,113.728H58.729C26.348,113.728,0,140.078,0,172.459v259.15c0,32.381,26.348,58.729,58.729,58.729 H317.88c32.381,0,58.728-26.348,58.728-58.729v-259.15C376.608,140.078,350.261,113.728,317.88,113.728z M307.958,421.687H68.651 V182.378h239.307V421.687z"/>
        <path d="M406.609,1.685H260.308c-18.956,0-34.325,15.369-34.325,34.324c0,18.956,15.369,34.326,34.325,34.326 h146.302c9.236,0,16.762,7.525,16.762,16.76V233.4c0,18.955,15.368,34.324,34.325,34.324s34.326-15.369,34.326-34.324V87.095 C492.022,40,453.706,1.685,406.609,1.685z"/>
    </symbol>

    <!-- Add Folder/Section Icon -->
    <symbol id="icon-add-folder" viewBox="0 0 494.941 494.941">
        <path d="M356.93,138.964H178.637l-7.211-13.876c-6.624-14.868-21.38-24.438-37.657-24.438H41.242 C18.469,100.649,0,119.12,0,141.909v268.883c0,20.117,16.299,36.426,36.418,36.426h325.353c20.108,0,36.41-16.309,36.41-36.426 V180.206C398.181,157.417,379.719,138.964,356.93,138.964z M356.753,211.573H41.434V142.1h92.216 c0.311,0.705,0.647,1.375,1.008,2.082l7.209,13.857c7.114,13.748,21.301,22.357,36.77,22.357h178.116V211.573z"/>
        <path d="M422.763,47.723H213.046c-13.579,0-24.583,11.012-24.583,24.584c0,13.572,11.003,24.58,24.583,24.58 h209.717c12.691,0,23.014,10.324,23.014,23.014v201.381c0,13.57,11.003,24.582,24.582,24.582c13.579,0,24.582-11.012,24.582-24.582 V119.901C494.941,80.1,462.565,47.723,422.763,47.723z"/>
    </symbol>

    <!-- Export Icon -->
    <symbol id="icon-export" viewBox="0 0 24 24">
        <path stroke="currentColor" stroke-linecap="round" stroke-linejoin="round" stroke-width="2" d="M19 10V4a1 1 0 0 0-1-1H9.914a1 1 0 0 0-.707.293L5.293 7.207A1 1 0 0 0 5 7.914V20a1 1 0 0 0 1 1h12a1 1 0 0 0 1-1v-2M10 3v4a1 1 0 0 1-1 1H5m5 6h9m0 0-2-2m2 2-2 2"/>
    </symbol>

    <!-- Import Icon -->
    <symbol id="icon-import" viewBox="0 0 24 24">
        <path stroke="currentColor" stroke-linecap="round" stroke-linejoin="round" stroke-width="2" d="M5 12V7.914a1 1 0 0 1 .293-.707l3.914-3.914A1 1 0 0 1 9.914 3H18a1 1 0 0 1 1 1v16a1 1 0 0 1-1 1H6a1 1 0 0 1-1-1v-4m5-13v4a1 1 0 0 1-1 1H5m0 6h9m0 0-2-2m2 2-2 2"/>
    </symbol>

    <!-- Settings Icon -->
    <symbol id="icon-settings" viewBox="0 0 24 24">
        <path d="M12.22 2h-.44a2 2 0 0 0-2 2v.18a2 2 0 0 1-1 1.73l-.43.25a2 2 0 0 1-2 0l-.15-.08a2 2 0 0 0-2.73.73l-.22.38a2 2 0 0 0 .73 2.73l.15.1a2 2 0 0 1 1 1.72v.51a2 2 0 0 1-1 1.74l-.15.09a2 2 0 0 0-.73 2.73l.22.38a2 2 0 0 0 2.73.73l.15-.08a2 2 0 0 1 2 0l.43.25a2 2 0 0 1 1 1.73V20a2 2 0 0 0 2 2h.44a2 2 0 0 0 2-2v-.18a2 2 0 0 1 1-1.73l.43-.25a2 2 0 0 1 2 0l.15.08a2 2 0 0 0 2.73-.73l.22-.39a2 2 0 0 0-.73-2.73l-.15-.08a2 2 0 0 1-1-1.74v-.5a2 2 0 0 1 1-1.74l.15-.09a2 2 0 0 0 .73-2.73l-.22-.38a2 2 0 0 0-2.73-.73l-.15.08a2 2 0 0 1-2 0l-.43-.25a2 2 0 0 1-1-1.73V4a2 2 0 0 0-2-2z"/>
        <circle cx="12" cy="12" r="3"/>
    </symbol>

    <!-- Eye Icon (Visible) -->
    <symbol id="icon-eye" viewBox="0 0 24 24">
        <path d="M2 12s3-7 10-7 10 7 10 7-3 7-10 7-10-7-10-7Z"/>
        <circle cx="12" cy="12" r="3"/>
    </symbol>

    <!-- Eye Icon (Hidden) -->
    <symbol id="icon-eye-off" viewBox="0 0 24 24">
        <path d="M2 2l20 20M6.71 6.71a9.86 9.86 0 0 0-3.31 4.3 1 1 0 0 0 0 .98c1.63 3.94 5.12 6.7 8.6 6.7a9.77 9.77 0 0 0 4.89-1.3"/>
        <path d="M9.9 4.91A9.93 9.93 0 0 1 12 4c3.48 0 6.97 2.76 8.6 6.7 0 .14 0 .28 0 .42"/>
        <circle cx="12" cy="12" r="3"/>
    </symbol>

    <!-- Reset Icon -->
    <symbol id="icon-reset" viewBox="0 0 24 24">
        <path d="M3 12a9 9 0 1 0 9-9 9.75 9.75 0 0 0-6.74 2.74L3 8"/>
        <path d="M3 3v5h5"/>
    </symbol>

    <!-- Arrow Expand/Collapse Icon NO LO ESTOY USANDO Y DEBERIA-->
    <symbol id="icon-chevron-down" viewBox="0 -12 100 100">
        <path d="M14.5,29.6a7.5,7.5,0,0,1,10.7,0L50,54.4,74.8,29.6A7.5,7.5,0,1,1,85.5,40.2L55.3,70.4a7.4,7.4,0,0,1-10.6,0L14.5,40.2A7.5,7.5,0,0,1,14.5,29.6Z"/>
        <!-- <path class="svg-fill-primary" d="M14.5,29.6a7.5,7.5,0,0,1,10.7,0L50,54.4,74.8,29.6A7.5,7.5,0,1,1,85.5,40.2L55.3,70.4a7.4,7.4,0,0,1-10.6,0L14.5,40.2A7.5,7.5,0,0,1,14.5,29.6Z" fill-rule="evenodd"></path> -->
    </symbol>
    
</svg>